<svg id="圖層_1" data-name="圖層 1" xmlns="http://www.w3.org/2000/svg" viewBox="0 0 416.32 69.9"><defs><style>.cls-1{fill:none;stroke:#fff;stroke-miterlimit:10;}</style></defs><title>TAIGER_LOGO</title><path class="cls-1" d="M56.08,7.32V14H39.73V74H19.22V14H2.76V7.32Z" transform="translate(-2.26 -5.7)"/><path class="cls-1" d="M111.39,7.32,129.94,74H110.51l-4-14.45H86.48L82.24,74H74.67L94.4,7.32Zm-23,45.51h16.36L96.89,23.29Z" transform="translate(-2.26 -5.7)"/><path class="cls-1" d="M174.55,7.32V74H155.21V7.32Z" transform="translate(-2.26 -5.7)"/><path class="cls-1" d="M232.2,38h27.44V74h-6.15l-2.1-4.59a29,29,0,0,1-17,5.71q-14.81,0-23-8.86t-8.18-25q0-15.66,8.67-25.36T234.54,6.2Q253,6.2,257,25l-9.08,4.15V27.58L247.77,24q-.93-11.76-10.89-11.77-7.32,0-10,6.25t-2.69,23.29q0,15.93,2.17,21.63a8.17,8.17,0,0,0,8.28,5.72q7.17,0,7.18-8V44.67H232.2Z" transform="translate(-2.26 -5.7)"/><path class="cls-1" d="M332.32,7.32V14H308.45V34.17h20.07v6.69H308.45V67.28h27.93V74H289.11V7.32Z" transform="translate(-2.26 -5.7)"/><path class="cls-1" d="M362.43,74V7.32h28.66Q402.28,7.32,409,12a14.7,14.7,0,0,1,6.69,12.62q0,12.12-14.35,15.77c4.91,1.83,8.1,3.83,9.54,6s2.44,6.41,3,12.7q.93,11.22,3.76,14.84h-21a29.35,29.35,0,0,1-2-11.57l-.1-4-.09-5q0-11.52-9.28-11.52h-3.32V74Zm19.34-37.55h3.9q11,0,11-11.47t-11-11.48h-3.9Z" transform="translate(-2.26 -5.7)"/></svg>