<svg  id="圖層_1" data-name="圖層 1" xmlns="http://www.w3.org/2000/svg" viewBox="0 0 1495.52 1221.74">
    <defs>
    <style>
    .cls-1{fill:none;stroke:#fff;stroke-miterlimit:10;stroke-width:3px;}</style>
    </defs>
    <title>TAIGER_LOGO_SVG</title>
    <polygon class="cls-1" points="1120.76 1.5 374.76 1.5 1.76 610.87 374.76 1220.24 1120.76 1220.24 1493.76 610.87 1120.76 1.5"/>
    <polyline class="cls-1" points="230.1 584.27 427.83 1211.01 747.76 1060.71 1067.69 1211.01 1265.42 576.88"/>
    <line class="cls-1" x1="232.14" y1="584.38" x2="544.38" y2="322.37"/>
    <polygon class="cls-1" points="741.64 841.17 565.15 576.22 918.14 576.22 741.64 841.17"/>
    <line class="cls-1" x1="1263.38" y1="576.22" x2="951.14" y2="314.22"/>
    <line class="cls-1" x1="741.64" y1="1061.27" x2="741.64" y2="816.71"/>
    <polygon class="cls-1" points="253.02 230.42 419.06 427.1 540.34 325.35 253.02 230.42"/>
    <polygon class="cls-1" points="1228.74 216.9 1064.27 411.75 947.1 313.43 1228.74 216.9"/>
</svg>